/* XPM */
static char * n_ring_xpm[] = {
"23 23 18 1",
" 	c None",
".	c #FF0000",
"+	c #FFF700",
"@	c #1CEC71",
"#	c #1BE483",
"$	c #1EF845",
"%	c #1CE67E",
"&	c #1BE08B",
"*	c #129BD6",
"=	c #0500CD",
"-	c #0700EE",
";	c #0600E5",
">	c #0700F4",
",	c #0600E4",
"'	c #FFB100",
")	c #1FFF00",
"!	c #FF6700",
"~	c #FFC300",
"                       ",
"    ..........         ",
"   ....     ....       ",
"  .     +       .      ",
"  .                    ",
"                  .    ",
" ..     @#$            ",
" .     %&              ",
"       *               ",
"                       ",
"          =-;          ",
"          >,       '   ",
"      )       )        ",
"        )     )   +!   ",
"         )        '    ",
"  .               .    ",
"  .              .     ",
"    ..         ~.      ",
"     .... . ...        ",
"          . .          ",
"                       ",
"                       ",
"                       "};
