/* XPM */
static char * paint_feature_xpm[] = {
"23 23 6 1",
" 	c None",
".	c #000000",
"+	c #DBDBDB",
"@	c #929292",
"#	c #154FB4",
"$	c #FFFFFF",
"                       ",
"                       ",
"                       ",
"                       ",
"              .++.@    ",
"              .++.@    ",
"             .++.@@    ",
"             .++.@     ",
"            .++.@@     ",
"            .++.@      ",
"           .++.@@      ",
"           .++.@       ",
"          ....@@       ",
"         .++..@    ##  ",
"        .$$+..@  ###   ",
"        .$+@..@##      ",
"       .$+@..@@        ",
"       .+@..@@         ",
"      .$@..@@          ",
"     ....@@@           ",
"   ###@@@@             ",
"  ##                   ",
"                       "};
