/* XPM */
static char * transform2_interactions_xpm[] = {
"23 23 2 1",
" 	c None",
".	c #26C91B",
"                       ",
"                       ",
"                       ",
"       .......         ",
"      .........        ",
"     ...      ..       ",
"    ..         ..      ",
"    ..          ..     ",
"    ..          ..     ",
"    ...          .     ",
"     ..          .     ",
"     ...         .     ",
"      ..         .     ",
"      . ...     .      ",
"       . .......       ",
"        . .....        ",
"                       ",
"                       ",
"                       ",
"                       ",
"                       ",
"                       ",
"                       "};
