/* XPM */
static char * test_xpm[] = {
"23 23 3 1",
" 	c None",
".	c #FFFF00",
"+	c #000000",
"                       ",
"                       ",
"         ++++          ",
"         ++++          ",
"         ++++          ",
"         ++++          ",
"         ++++          ",
"         ++++          ",
"         ++++          ",
"         ++++          ",
"                       ",
"                       ",
"                       ",
"         ++++          ",
"         ++++          ",
"         ++++          ",
"         ++++          ",
"         ++++          ",
"         ++++          ",
"         ++++          ",
"         +++           ",
"                       ",
"                       "};
