/* XPM */
static char * Untitled_xpm[] = {
"23 23 12 1",
" 	c None",
".	c #00C60B",
"+	c #31C035",
"@	c #848D87",
"#	c #858C89",
"$	c #8B8688",
"%	c #858C88",
"&	c #85878E",
"*	c #C6000B",
"=	c #88898B",
"-	c #787C9B",
";	c #003DC6",
"          .            ",
"         ...           ",
"          .            ",
"          .            ",
"          .            ",
"          .            ",
"          .            ",
"          .            ",
"          .            ",
"          .            ",
"          .            ",
"          +            ",
"          @#           ",
"         $%&           ",
"        *$=-;          ",
"       *               ",
"      *        ;       ",
"     *          ;      ",
"    *            ;;    ",
"  **              ;;   ",
"***                ;;; ",
"***                 ;; ",
" *                     "};
